<?xml version="1.0" encoding="UTF-8"?>
<!DOCTYPE svg PUBLIC "-//W3C//DTD SVG 1.1//EN" 
  "http://www.w3.org/Graphics/SVG/1.1/DTD/svg11.dtd">
<svg xmlns="http://www.w3.org/2000/svg" version="1.1" width="220" height="220" viewBox="0 0 220 220">
  <g fill="#000000" stroke="none" fill-rule="evenodd">
    <path d="M 130 62 L 123 61 L 114 63 L 118 72 L 123 75 L 131 69 L 126 65 L 127 63 L 132 64 Z"/>
    <path d="M 94 33 L 88 40 L 85 47 L 85 69 L 83 71 L 83 82 L 86 90 L 91 94 L 95 108 L 91 115 L 85 120 L 43 135 L 42 141 L 33 160 L 33 164 L 30 168 L 29 181 L 24 196 L 24 219 L 81 219 L 83 208 L 87 201 L 89 203 L 89 219 L 195 219 L 199 203 L 197 176 L 199 170 L 197 168 L 191 136 L 187 132 L 168 128 L 150 120 L 137 107 L 136 115 L 128 135 L 125 137 L 119 132 L 122 144 L 112 169 L 106 196 L 103 196 L 96 142 L 101 138 L 105 140 L 107 148 L 103 152 L 104 157 L 106 149 L 113 144 L 111 141 L 112 133 L 119 128 L 131 114 L 120 123 L 116 121 L 116 118 L 129 107 L 137 89 L 136 80 L 136 86 L 125 103 L 119 106 L 115 105 L 118 97 L 120 95 L 125 95 L 126 91 L 120 90 L 116 85 L 111 83 L 110 65 L 105 60 L 105 56 L 109 49 L 114 45 L 129 47 L 131 49 L 132 57 L 137 70 L 140 68 L 140 56 L 136 40 L 127 32 L 115 28 L 108 28 Z"/>
  </g>
</svg>